<svg width="1000" height="1000" viewBox="0 0 1000 1000" fill="none" xmlns="http://www.w3.org/2000/svg">
<rect width="1000" height="1000" fill="#EB0009"/>
<rect x="125" y="125" width="750" height="750" rx="37.5" fill="#EB0009"/>
<path d="M525.189 513.363L638.674 488.967M525.189 513.363L529.102 424.997M525.189 513.363L611.28 619.299C612.685 621.027 615.47 620.305 615.858 618.112L638.674 488.967M537.688 303.535L545.293 271.981M537.688 303.535L569.505 302.028M537.688 303.535L614.868 371.383M537.688 303.535L638.674 488.967M537.688 303.535L529.102 424.997M680.422 332.93L671.36 299.248C671.043 298.069 669.947 297.269 668.727 297.327L569.505 302.028M680.422 332.93L614.868 371.383M680.422 332.93L631.556 319.316M614.868 371.383L638.674 488.967M614.868 371.383L631.556 319.316M614.868 371.383L569.505 302.028M638.674 488.967L529.102 424.997M545.293 271.981L572.822 237.231C574.456 235.169 577.768 236.56 577.439 239.171L569.505 302.028M545.293 271.981L569.505 302.028M569.505 302.028L631.556 319.316" stroke="#F9FAFC" stroke-width="13.125"/>
<path d="M615.293 371.538L538.6 303.944H572.397L680.287 335.141L615.293 371.538Z" fill="#F9FAFC"/>
<path d="M303.791 573.1L366.283 757.058C367.258 759.928 371.522 759.091 371.34 756.065L356.822 514.579C356.681 512.229 353.738 511.262 352.23 513.07L304.256 570.598C303.676 571.294 303.5 572.242 303.791 573.1Z" stroke="#F9FAFC" stroke-width="13.125"/>
<path d="M607.335 623.479L355.152 510.857C352.564 509.701 353.431 505.826 356.265 505.884L525.642 509.299C526.437 509.315 527.181 509.694 527.661 510.327L610.467 619.534C612.092 621.678 609.791 624.576 607.335 623.479Z" fill="#F9FAFC"/>
<path d="M491.236 678.778L373.564 763.845C371.879 765.063 369.517 763.908 369.443 761.83L360.796 517.238C360.707 514.729 363.874 513.564 365.432 515.532L491.751 675.058C492.67 676.218 492.436 677.911 491.236 678.778Z" fill="#F9FAFC" stroke="#F9FAFC" stroke-width="5.19952"/>
<path d="M578.753 761.76L610.896 624.537C611.183 623.309 610.548 622.051 609.389 621.554L367.084 517.71C364.543 516.621 362.284 519.724 364.1 521.807L574.262 762.876C575.655 764.473 578.27 763.823 578.753 761.76Z" stroke="#F9FAFC" stroke-width="13.125"/>
<path d="M541.669 313.242L635.751 485.523C636.575 487.032 635.733 488.911 634.058 489.301L528.979 513.738C527.291 514.13 525.698 512.791 525.795 511.06L536.791 314.343C536.937 311.732 540.415 310.947 541.669 313.242Z" fill="#F9FAFC"/>
</svg>
