<svg width="1326" height="764" viewBox="0 0 1326 764" fill="none" xmlns="http://www.w3.org/2000/svg">
<rect x="21.0172" y="-24.1874" width="255.599" height="680.77" transform="rotate(-45 21.0172 -24.1874)" fill="#323C46" fill-opacity="0.03"/>
<rect x="-79.4721" y="76.3019" width="102.24" height="680.77" transform="rotate(-45 -79.4721 76.3019)" fill="#323C46" fill-opacity="0.03"/>
<rect x="-329.611" y="326.441" width="306.719" height="583.517" transform="rotate(-45 -329.611 326.441)" fill="#323C46" fill-opacity="0.03"/>
<rect x="124.259" y="780.311" width="306.719" height="583.517" transform="rotate(-45 124.259 780.311)" fill="#323C46" fill-opacity="0.03"/>
<rect x="449.479" y="628.387" width="306.719" height="680.77" transform="rotate(-45 449.479 628.387)" fill="#323C46" fill-opacity="0.03"/>
<rect x="688.05" y="389.815" width="102.24" height="680.77" transform="rotate(-45 688.05 389.815)" fill="#323C46" fill-opacity="0.03"/>
<rect x="789.262" y="288.603" width="204.48" height="389.012" transform="rotate(-45 789.262 288.603)" fill="#323C46" fill-opacity="0.03"/>
<rect x="437.487" y="-19.7959" width="224.927" height="389.012" transform="rotate(-45 437.487 -19.7959)" fill="#323C46" fill-opacity="0.03"/>
<rect x="1133.1" y="632.444" width="153.36" height="194.506" transform="rotate(-45 1133.1 632.444)" fill="#323C46" fill-opacity="0.03"/>
<rect x="809.751" y="-23.4628" width="270" height="875.276" transform="rotate(-45 809.751 -23.4628)" fill="#323C46" fill-opacity="0.03"/>
</svg>
