<svg width="36" height="36" viewBox="0 0 36 36" fill="none" xmlns="http://www.w3.org/2000/svg">
<rect width="36" height="36" rx="18" fill="white"/>
<path d="M24.75 24.25V14.25H14.75V13.625C14.75 12.591 15.591 11.75 16.625 11.75H18.5V8H16.625C15.1337 8.00185 13.7041 8.59508 12.6496 9.64957C11.5951 10.7041 11.0019 12.1337 11 13.625V14.25H8.5V18H11V24.25H8.5V28H17.25V24.25H14.75V18H21.035V24.25H18.5V28H27.25V24.25H24.75Z" fill="#323C46"/>
<path d="M22.875 11.75C23.9105 11.75 24.75 10.9105 24.75 9.875C24.75 8.83947 23.9105 8 22.875 8C21.8395 8 21 8.83947 21 9.875C21 10.9105 21.8395 11.75 22.875 11.75Z" fill="#323C46"/>
</svg>
