<svg width="36" height="36" viewBox="0 0 36 36" fill="none" xmlns="http://www.w3.org/2000/svg">
<rect width="36" height="36" rx="18" fill="#323C46"/>
<path d="M24.1875 23.7292V14.5625H15.0208V13.9896C15.0208 13.0418 15.7918 12.2708 16.7396 12.2708H18.4583V8.83334H16.7396C15.3726 8.83504 14.0621 9.37883 13.0954 10.3454C12.1288 11.3121 11.585 12.6226 11.5833 13.9896V14.5625H9.29167V18H11.5833V23.7292H9.29167V27.1667H17.3125V23.7292H15.0208V18H20.7821V23.7292H18.4583V27.1667H26.4792V23.7292H24.1875Z" fill="white"/>
<path d="M22.4687 12.2708C23.418 12.2708 24.1875 11.5013 24.1875 10.5521C24.1875 9.60285 23.418 8.83334 22.4687 8.83334C21.5195 8.83334 20.75 9.60285 20.75 10.5521C20.75 11.5013 21.5195 12.2708 22.4687 12.2708Z" fill="white"/>
</svg>
