<svg width="36" height="36" viewBox="0 0 36 36" fill="none" xmlns="http://www.w3.org/2000/svg">
<rect width="36" height="36" rx="18" fill="white"/>
<path fill-rule="evenodd" clip-rule="evenodd" d="M17.9967 5.76196C10.7995 5.76196 4.96332 11.5969 4.96332 18.7953C4.96332 24.5537 8.6978 29.4391 13.8763 31.1626C14.5276 31.2832 14.7668 30.8797 14.7668 30.5355C14.7668 30.2249 14.7549 29.198 14.7492 28.1089C11.1233 28.8975 10.3582 26.5712 10.3582 26.5712C9.76527 25.0648 8.91113 24.6641 8.91113 24.6641C7.7285 23.8552 9.00027 23.8719 9.00027 23.8719C10.3089 23.9638 10.9981 25.2152 10.9981 25.2152C12.1606 27.2076 14.0471 26.6315 14.7909 26.2985C14.9079 25.4562 15.2455 24.8811 15.6184 24.5556C12.7235 24.2262 9.68021 23.1085 9.68021 18.1145C9.68021 16.6917 10.1894 15.5289 11.0232 14.6162C10.8879 14.2878 10.4417 12.9623 11.1495 11.1669C11.1495 11.1669 12.244 10.8168 14.7344 12.5031C15.7741 12.2143 16.8891 12.0694 17.9967 12.0644C19.1043 12.0694 20.2201 12.2143 21.2616 12.5031C23.7494 10.8168 24.8423 11.1669 24.8423 11.1669C25.5517 12.9623 25.1055 14.2878 24.9702 14.6162C25.8059 15.5289 26.3115 16.6916 26.3115 18.1145C26.3115 23.1205 23.2625 24.2225 20.3602 24.5453C20.8277 24.9498 21.2441 25.7429 21.2441 26.9588C21.2441 28.7027 21.2292 30.1062 21.2292 30.5355C21.2292 30.8825 21.4638 31.2889 22.1243 31.161C27.3002 29.4356 31.03 24.5518 31.03 18.7953C31.03 11.5969 25.1946 5.76196 17.9967 5.76196Z" fill="#323C46"/>
<path d="M9.89979 24.4748C9.87111 24.5397 9.76912 24.5591 9.67636 24.5147C9.58174 24.4721 9.52884 24.3838 9.55938 24.3189C9.58742 24.2522 9.68939 24.2337 9.78384 24.2782C9.87851 24.3208 9.9325 24.4099 9.89979 24.4748Z" fill="white"/>
<path d="M10.4277 25.0638C10.3656 25.1213 10.2439 25.0945 10.1615 25.0035C10.0761 24.9126 10.0603 24.791 10.1234 24.7327C10.1875 24.6751 10.3054 24.702 10.3907 24.7929C10.4761 24.8849 10.4927 25.0054 10.4277 25.0638Z" fill="white"/>
<path d="M10.9417 25.8143C10.8617 25.8699 10.7311 25.8177 10.6503 25.7019C10.5704 25.5859 10.5704 25.4469 10.6522 25.3912C10.7329 25.3355 10.8618 25.3856 10.9435 25.5006C11.0232 25.6185 11.0232 25.7576 10.9417 25.8143Z" fill="white"/>
<path d="M11.6456 26.5396C11.5741 26.6184 11.4219 26.5971 11.3106 26.4896C11.1966 26.3846 11.165 26.2354 11.2364 26.1566C11.309 26.0777 11.462 26.0998 11.5741 26.2065C11.6872 26.3115 11.7216 26.4615 11.6456 26.5396Z" fill="white"/>
<path d="M12.6168 26.9607C12.5852 27.0627 12.4387 27.1091 12.2912 27.0657C12.1436 27.021 12.0473 26.9015 12.077 26.7984C12.1076 26.6956 12.2548 26.6473 12.4034 26.6937C12.5508 26.7382 12.6473 26.8568 12.6168 26.9607Z" fill="white"/>
<path d="M13.6835 27.0386C13.6871 27.146 13.5619 27.2352 13.407 27.2371C13.2512 27.2407 13.1249 27.1537 13.1233 27.0479C13.1233 26.9393 13.2457 26.8512 13.4015 26.8485C13.5564 26.8455 13.6835 26.9319 13.6835 27.0386Z" fill="white"/>
<path d="M14.676 26.8697C14.6946 26.9745 14.5868 27.0822 14.4329 27.1109C14.2816 27.1387 14.1417 27.0738 14.1223 26.9699C14.1036 26.8624 14.2131 26.7547 14.3643 26.7269C14.5184 26.7001 14.6564 26.7631 14.676 26.8697Z" fill="white"/>
</svg>
