<svg width="36" height="36" viewBox="0 0 36 36" fill="none" xmlns="http://www.w3.org/2000/svg">
<rect width="36" height="36" rx="18" fill="#323C46"/>
<path fill-rule="evenodd" clip-rule="evenodd" d="M17.9967 5.76184C10.7995 5.76184 4.96331 11.5968 4.96331 18.7951C4.96331 24.5536 8.6978 29.439 13.8763 31.1624C14.5276 31.283 14.7668 30.8796 14.7668 30.5354C14.7668 30.2248 14.7549 29.1979 14.7492 28.1088C11.1233 28.8973 10.3582 26.5711 10.3582 26.5711C9.76526 25.0647 8.91113 24.664 8.91113 24.664C7.7285 23.8551 9.00027 23.8718 9.00027 23.8718C10.3089 23.9637 10.9981 25.2151 10.9981 25.2151C12.1606 27.2074 14.0471 26.6314 14.7909 26.2983C14.9079 25.4561 15.2455 24.8809 15.6184 24.5555C12.7235 24.226 9.6802 23.1084 9.6802 18.1144C9.6802 16.6915 10.1894 15.5288 11.0232 14.6161C10.8879 14.2877 10.4417 12.9622 11.1495 11.1668C11.1495 11.1668 12.244 10.8167 14.7344 12.503C15.7741 12.2141 16.8891 12.0693 17.9967 12.0643C19.1043 12.0693 20.2201 12.2141 21.2616 12.503C23.7494 10.8167 24.8423 11.1668 24.8423 11.1668C25.5517 12.9622 25.1055 14.2877 24.9702 14.6161C25.8059 15.5288 26.3115 16.6915 26.3115 18.1144C26.3115 23.1204 23.2625 24.2224 20.3602 24.5452C20.8277 24.9497 21.2441 25.7428 21.2441 26.9587C21.2441 28.7026 21.2292 30.1061 21.2292 30.5354C21.2292 30.8823 21.4638 31.2888 22.1243 31.1608C27.3002 29.4355 31.03 24.5517 31.03 18.7951C31.03 11.5968 25.1946 5.76184 17.9967 5.76184Z" fill="white"/>
<path d="M9.89976 24.4747C9.87108 24.5397 9.76909 24.559 9.67633 24.5146C9.58171 24.4721 9.52881 24.3837 9.55934 24.3188C9.58739 24.2521 9.68936 24.2336 9.78381 24.2781C9.87848 24.3207 9.93246 24.4098 9.89976 24.4747Z" fill="#323C46"/>
<path d="M10.4277 25.0637C10.3656 25.1211 10.2439 25.0944 10.1615 25.0034C10.0761 24.9125 10.0603 24.7909 10.1234 24.7326C10.1875 24.675 10.3053 24.7019 10.3906 24.7928C10.4761 24.8847 10.4927 25.0053 10.4277 25.0637Z" fill="#323C46"/>
<path d="M10.9416 25.8142C10.8617 25.8698 10.731 25.8177 10.6503 25.7018C10.5704 25.5859 10.5704 25.4468 10.6522 25.3911C10.7329 25.3355 10.8617 25.3856 10.9435 25.5006C11.0232 25.6185 11.0232 25.7576 10.9416 25.8142Z" fill="#323C46"/>
<path d="M11.6456 26.5395C11.5741 26.6183 11.4219 26.597 11.3107 26.4895C11.1966 26.3845 11.165 26.2353 11.2364 26.1565C11.309 26.0777 11.462 26.0997 11.5741 26.2064C11.6873 26.3114 11.7216 26.4614 11.6456 26.5395Z" fill="#323C46"/>
<path d="M12.6168 26.9606C12.5852 27.0625 12.4387 27.1089 12.2912 27.0655C12.1436 27.0208 12.0473 26.9013 12.077 26.7982C12.1076 26.6954 12.2548 26.6472 12.4034 26.6935C12.5508 26.738 12.6473 26.8566 12.6168 26.9606Z" fill="#323C46"/>
<path d="M13.6835 27.0386C13.687 27.146 13.5619 27.2352 13.407 27.2371C13.2512 27.2407 13.1249 27.1537 13.1233 27.0479C13.1233 26.9393 13.2456 26.8512 13.4015 26.8485C13.5564 26.8455 13.6835 26.9319 13.6835 27.0386Z" fill="#323C46"/>
<path d="M14.676 26.8697C14.6946 26.9745 14.5868 27.0822 14.4329 27.1108C14.2816 27.1387 14.1417 27.0738 14.1223 26.9698C14.1036 26.8624 14.2131 26.7547 14.3643 26.7268C14.5184 26.7 14.6564 26.763 14.676 26.8697Z" fill="#323C46"/>
</svg>
