<svg width="36" height="36" viewBox="0 0 36 36" fill="none" xmlns="http://www.w3.org/2000/svg">
<rect width="36" height="36" rx="18" fill="#323C46"/>
<path d="M9.20541 14.9857H13.0731V26.6248H9.20541V14.9857ZM11.1651 9.37521C9.84139 9.37521 8.97656 10.2443 8.97656 11.3849C8.97656 12.5021 9.81609 13.3964 11.1145 13.3964H11.1392C12.4882 13.3964 13.3284 12.502 13.3284 11.3849C13.303 10.2443 12.4883 9.37521 11.1651 9.37521ZM22.5693 14.7123C20.5162 14.7123 19.5965 15.8415 19.0834 16.6335V14.9857H15.2146C15.2658 16.0776 15.2146 26.6248 15.2146 26.6248H19.0834V20.1247C19.0834 19.7766 19.1087 19.4297 19.2105 19.1803C19.4906 18.4854 20.1272 17.7657 21.1949 17.7657C22.5958 17.7657 23.1552 18.8335 23.1552 20.3974V26.6247H27.0234V19.9507C27.0234 16.3757 25.1155 14.7123 22.5693 14.7123Z" fill="white"/>
</svg>
